<?xml version="1.0" encoding="UTF-8" standalone="no"?>
<svg xmlns="http://www.w3.org/2000/svg" width="256" height="256" version="1.0">
  <path fill="#1F4B8E" d="M 128,0 C 57.343,0 0,57.343 0,128 C 0,198.657 57.343,256 128,256 C 198.657,256 256,198.657 256,128 C 256,57.343 198.657,0 128,0 z M 126.77,23.047 C 185.053,23.047 232.363,70.357 232.363,128.64 C 232.363,145.56 229.468,160.405 222.402,174.423 C 213.16,159.079 201.117,140.025 191.723,123.753 C 165.211,123.564 107.646,123.04 84.568,123.04 C 84.568,149.669 84.945,178.751 84.945,199.946 C 75.518,199.808 58.967,200.158 49.554,200.081 C 31.676,181.164 22.104,155.342 22.254,127.28 C 22.557,70.51 68.488,23.047 126.77,23.047 z" />
</svg>
